<svg xmlns="http://www.w3.org/2000/svg" width="15" height="15" viewBox="0 0 15 15" fill="none">
  <path d="M7.20003 1.66748C3.98587 1.66748 1.3667 4.28665 1.3667 7.50081C1.3667 10.715 3.98587 13.3341 7.20003 13.3341C10.4142 13.3341 13.0334 10.715 13.0334 7.50081C13.0334 4.28665 10.4142 1.66748 7.20003 1.66748ZM9.73753 9.58331C9.65587 9.72331 9.51003 9.79915 9.35837 9.79915C9.28253 9.79915 9.2067 9.78165 9.1367 9.73498L7.32837 8.65581C6.8792 8.38748 6.5467 7.79831 6.5467 7.27915V4.88748C6.5467 4.64831 6.74503 4.44998 6.9842 4.44998C7.22337 4.44998 7.4217 4.64831 7.4217 4.88748V7.27915C7.4217 7.48915 7.5967 7.79831 7.77753 7.90331L9.58587 8.98248C9.79587 9.10498 9.86587 9.37331 9.73753 9.58331Z" fill="#00BC6E"/>
</svg>