<svg xmlns="http://www.w3.org/2000/svg" width="139" height="140" viewBox="0 0 139 140" fill="none">
  <path d="M175.928 -31V-1.8434L166.297 -11.4743V-31H166.12L166.151 -30.9699V-11.6217L156.52 -21.2525V-31H156.373V-21.2525L146.742 -11.6217V-31H87.9281V-21.2525L78.2972 -11.6217V-31H78.1205L68.5196 -21.3992V-31H68.3729V-21.2525L58.742 -11.6217V-31H0V-1.59333H29.1568L19.5259 8.03753H0V8.21426L0.0300669 8.1842H19.3785L9.74755 17.8151H0V17.9617H9.74755L19.3785 27.5926H0V27.7393H19.3785L9.74755 37.3701H0V37.5168H9.60088L0 47.1183V47.2951H19.3785L9.74755 56.9259H0V144.999H58.7405V125.621L68.3714 135.252V144.999H68.5181V135.252L78.1491 125.621V144.969L78.119 144.999H78.2957V125.474L87.9267 115.843V145H146.74V135.253L146.771 135.222L146.74 135.192V125.622L156.371 135.253V145H156.518V135.399L166.119 145H166.296V125.622L175.927 135.253V145H176V56.9267H146.843L156.474 47.2958H175.999V47.1191L175.969 47.1491H156.621L166.252 37.5183H175.999V37.3716H166.252L156.621 27.7407H175.999V27.5941H156.621L166.252 17.9632H175.999V17.8165H166.398L175.999 8.21573V8.039H156.621L166.252 -1.59187H175.999V-31H175.926H175.928ZM156.446 -21.1183L166.15 -11.4141V-1.74H146.74V-11.4141L156.446 -21.1183ZM166.296 -11.2675L175.824 -1.74H166.296V-11.2675ZM107.587 135.149L97.9558 125.518H117.304L126.935 135.149H107.587ZM68.6222 115.593L78.2532 105.962H97.7483L107.379 115.593H68.6222ZM48.8587 135.149H29.5103L39.1413 125.518H58.4897L48.8587 135.149ZM9.85095 76.5859L19.4819 66.955V86.3033L9.85095 95.9341V76.5859ZM29.1561 57.0733L19.6286 66.6008V57.0733H29.1561ZM29.4069 37.4141V17.9192L39.0379 8.28833V47.1924L29.4069 56.8233V37.475L29.437 37.4449L29.4069 37.4141ZM58.4904 -11.5175H39.142L29.511 -21.1484H48.8595L58.4904 -11.5175ZM97.8092 -21.1484H117.158L107.527 -11.5175H88.1782L97.8092 -21.1484ZM146.638 66.8516L156.269 76.4825H136.92L127.289 66.8516H146.638ZM136.787 76.5558L127.083 86.26H117.408V66.8509H127.083L136.787 76.5558ZM146.595 125.475V135.046L127.29 115.741H146.595V125.415L146.565 125.445L146.595 125.475ZM107.588 115.593L97.8832 105.889L107.588 96.1849H117.262V115.594L107.588 115.593ZM97.749 105.816H78.4006L88.0315 96.1849H107.38L97.749 105.816ZM19.5868 125.372L9.95582 115.741H48.7128L39.0819 125.372H19.5868ZM29.261 96.2883V115.593H9.95582L29.261 96.2883ZM88.0741 -11.2675L97.6016 -1.74H88.0741V-11.2675ZM127.082 -11.3709L136.713 -1.74H97.9558L107.587 -11.3709H127.082ZM146.595 17.9192V37.4141L136.964 47.045V8.14093L146.595 -1.48993V17.8583L146.564 17.8884L146.595 17.9192ZM107.733 96.0375L117.261 86.5101V96.0375H107.733ZM68.6222 96.0375L78.2532 86.4067H88.0741H117.158L107.527 96.0375H68.6222ZM48.9629 115.593V106.066L58.4904 115.593H48.9629ZM58.5938 115.74V125.267L49.0663 115.74H58.5938ZM48.8162 115.593H29.4069V105.919L39.1112 96.215L48.8155 105.919L48.8162 115.593ZM48.9629 17.9192L58.5938 8.28833V27.5933V47.045L48.9629 37.4141V17.9192ZM68.4455 -1.56327L68.4756 -1.59333H97.7483L107.379 8.03753H68.4748L58.8439 -1.59333H68.4147L68.4455 -1.56327ZM127.186 56.8225V37.4743L136.817 27.8434V47.1917L127.186 56.8225ZM39.0386 96.0801L29.4076 105.711V66.9535L39.0386 76.5844V96.0801ZM38.9352 57.0726L29.4076 66.6001V57.0726H38.9352ZM29.4384 66.7768L39.0393 57.176V76.3776L29.4384 66.7768ZM58.742 56.9259V37.6209L68.3729 47.2518V66.7467L58.742 76.3776V56.9259ZM68.2695 8.0368H58.742V-1.49067L68.2695 8.0368ZM58.742 8.18346H68.4162L78.1205 17.8877L68.4162 27.5919H58.742V8.18346ZM127.04 37.4134L117.409 47.0443V17.9185L117.439 17.8884L117.409 17.8583V8.2876L127.04 17.9185V37.4134ZM127.04 56.8225L117.439 47.2217L127.04 37.6209V56.8225ZM117.262 86.1559L107.632 76.525V37.6209L117.232 47.2217L117.262 47.2518V56.9259V86.1559ZM78.2547 17.9617H97.7498L107.381 27.5926H97.8106L97.7806 27.5625L97.7505 27.5926H87.9296H68.6244L78.2547 17.9617ZM107.485 56.8225L97.8539 47.1917V27.8434L107.485 37.4743V56.8225ZM78.2979 37.4743L87.9289 27.8434V37.4134L87.8988 37.4435L87.9289 37.4735V56.9985V66.746L78.2979 76.3769V37.4728V37.4743ZM87.8255 27.7393L78.2979 37.2667V27.7393H87.8255ZM87.9289 66.9543V86.2593H68.6237L87.9289 66.9543ZM88.0755 27.7393H97.6031L88.0755 37.2667V27.7393ZM97.7065 27.8427V47.0443L88.1056 37.4435L97.7065 27.8427ZM97.9573 27.7393H107.527L107.557 27.7693L107.588 27.7393H117.262V47.0443L97.9573 27.7393ZM107.735 27.5926L117.262 18.0651V27.5926H107.735ZM107.557 27.5625L97.9566 17.9617H117.158L107.557 27.5625ZM78.1505 27.7393V37.4134L68.4462 47.1176L58.742 37.4134V27.7393H78.1505ZM68.5196 47.2518L78.1505 37.6209V56.9692L68.5196 66.6001V47.2518ZM78.1505 57.176V76.5243L68.5196 86.1551V66.8069L78.1505 57.176ZM68.3729 86.1551L58.772 76.5543L68.3729 66.9535V86.1551ZM68.2695 86.2585H58.742V76.7311L68.2695 86.2585ZM88.0755 56.9985V37.6202L97.7065 47.2511V66.746L88.0755 76.3769V56.9985ZM97.8532 47.3977L107.484 57.0286V76.3769L97.8532 66.746V47.3977ZM117.262 -1.5948V17.7102L97.9573 -1.5948H117.262ZM117.159 17.8143H97.8106L88.1797 8.18346H107.528L117.159 17.8143ZM87.9721 8.18346L97.6031 17.8143H78.2547L68.6237 8.18346H87.9721ZM88.0755 76.5851L97.7798 66.8809L107.484 76.5851V86.2593H88.0748L88.0755 76.5851ZM107.632 76.7318L117.159 86.2593H107.632V76.7318ZM117.409 47.3985L126.937 56.9259H117.409V47.3985ZM136.818 27.6351L127.187 37.266V17.9177L136.818 8.28687V27.6351ZM127.114 17.7843L117.41 8.08006V-1.59407H136.819V8.08006L127.114 17.7843ZM58.596 7.9334L49.0685 -1.59407H58.596V7.9334ZM48.9651 -1.48993L58.566 8.11087L48.9651 17.7117V-1.48993ZM39.1875 96.0801V76.7318L48.8184 86.3627V105.711L39.1875 96.0801ZM48.8184 86.1559L39.1875 76.525V57.1767L48.8184 66.8076V86.1559ZM39.2909 57.0726H58.596V76.3776L39.2909 57.0726ZM68.4169 86.4059L68.447 86.436L68.477 86.4059H78.0471L58.742 105.711V86.4059H68.4169ZM127.292 56.9259L146.597 37.6209V56.9259H127.292ZM136.966 7.9334V-1.59407H146.493L136.966 7.9334ZM97.7813 -1.7708L88.1804 -11.3716H107.382L97.7813 -1.7708ZM49.0692 -1.74074L58.5968 -11.2682V-1.74074H49.0692ZM48.8925 -1.7708L39.2916 -11.3716H58.4934L48.8925 -1.7708ZM48.7157 -1.59407L29.4106 17.7109V-1.59407H48.7157ZM48.8191 -1.49067V17.8576L39.1882 27.4885V8.1402L48.8191 -1.49067ZM39.1882 27.696L48.8191 18.0651V37.4134L39.1882 47.0443V27.696ZM48.8925 37.5469L58.5968 47.2511V56.9252H39.1875V47.2511L48.8925 37.5469ZM39.0415 56.9252H29.514L39.0415 47.3977V56.9252ZM48.8925 115.769L58.4934 125.369H39.2916L48.8925 115.769ZM48.9658 105.857V66.9535L58.5667 76.5543L58.5968 76.5844V86.4052V105.857L58.5667 105.887L58.5968 105.917V115.488L48.9658 105.857ZM58.8476 105.814L68.4785 96.1827H87.8269L78.196 105.814H58.8476ZM78.0493 105.96L68.4484 115.561L58.8476 105.96H78.0493ZM117.411 115.591V96.2861L136.716 115.591H117.411ZM117.515 96.182H136.863L146.494 105.813H127.146L117.515 96.182ZM117.515 96.0353L127.116 86.4345L136.716 96.0353H117.515ZM117.411 95.9319V86.4045H126.939L117.411 95.9319ZM117.411 66.702V57.1745L126.939 66.702H117.411ZM146.595 -21.2958H137.067L146.595 -30.8233V-21.2958ZM146.595 -21.1491V-1.74H136.92L127.216 -11.4442L136.92 -21.1484L146.595 -21.1491ZM127.082 -11.5183H107.733L117.364 -21.1491H136.713L127.082 -11.5183ZM58.7405 -1.74074V-11.2682L68.268 -1.74074H58.7405ZM29.3035 -21.1491L38.9345 -11.5183H19.586L9.95508 -21.1491H29.3035ZM19.586 -11.3716H39.0811L48.7121 -1.74074H9.95508L19.586 -11.3716ZM29.2602 57.1767V66.7475L29.2302 66.7775L29.2602 66.8076V96.0801L19.6293 105.711V66.8069L29.2602 57.1767ZM19.4826 86.5101V105.858L9.85168 115.489V96.1409L19.4826 86.5101ZM9.70501 115.489L0.103401 105.889L9.70428 96.2883V115.49L9.70501 115.489ZM19.4526 125.444L9.74828 135.148H0.0733339V115.739H9.74755L19.4518 125.443L19.4526 125.444ZM19.5868 125.518H38.9352L29.3042 135.148H9.95508L19.5868 125.518ZM58.7412 106.066L68.2688 115.593H58.7412V106.066ZM88.0748 115.843L97.6024 125.371H88.0748V115.843ZM88.1782 115.74H117.262H127.083L136.714 125.371H97.8099L88.1782 115.74ZM117.512 125.518H136.86L146.491 135.148H127.143L117.512 125.518ZM146.491 135.295L136.89 144.896L127.289 135.295H146.491ZM156.476 115.593L156.446 115.563L156.416 115.593H136.921L127.29 105.962H166.195L175.825 115.593H156.476ZM146.699 105.815L137.068 96.1842H156.416L166.047 105.815H146.699ZM156.416 96.0375H136.921L127.29 86.4067H166.047L156.416 96.0375ZM127.29 86.26L136.921 76.6291H156.416L166.047 86.26H127.29ZM156.624 76.6291H175.825L166.225 86.2299L156.624 76.6291ZM156.477 76.4825L146.846 66.8516H166.195L175.825 76.4825H156.477ZM127.143 66.7049L117.513 57.0741H127.083L127.113 57.1041L127.143 57.0741H156.416L166.047 66.7049H127.143ZM136.861 -21.2951H97.9566L107.587 -30.9267H146.491L136.86 -21.2958L136.861 -21.2951ZM107.379 -30.9267L88.0741 -11.6217V-30.9267H107.379ZM87.9274 -11.475L87.8973 -11.4449L87.9274 -11.4149V-1.74074H68.6222L87.9274 -21.0457V-11.475ZM78.1498 -30.8233V-11.475L68.5188 -1.84414V-21.1917L78.1498 -30.8233ZM68.3722 -21.0457V-1.84414L58.7713 -11.4449L68.3722 -21.0457ZM58.5938 -30.9267V-11.6217L39.2887 -30.9267H58.5938ZM39.0811 -30.9267L48.7121 -21.2958H9.80842L0.176735 -30.9267H39.0811ZM9.60088 -21.2958H0.0733339V-30.8233L9.60088 -21.2958ZM0.0733339 -21.1491H9.74755L19.4518 -11.4449L9.74755 -1.74074H0.0733339V-21.1491ZM29.2602 -1.48993V8.03753H19.7327L29.2602 -1.48993ZM19.586 8.1842H29.2602V27.5933H19.586L19.556 27.5633L9.88175 17.8891L19.586 8.1842ZM29.2602 27.74V37.2675L19.7327 27.74H29.2602ZM19.556 27.7701L29.1568 37.3709H9.95508L19.556 27.7701ZM0.176735 47.1491L9.80768 37.5183H29.1561L19.5252 47.1491H0.176735ZM29.2602 37.6217V56.9267H9.95508L29.2602 37.6217ZM19.4826 57.0733V66.7475L9.77835 76.4517L0.0733339 66.7475V57.0733H19.4826ZM0.0733339 66.955L9.70428 76.5859V96.0808L0.0733339 105.712V66.955ZM9.60088 115.593H0.0733339V106.066L9.60088 115.593ZM0.0733339 135.296H9.60088L0.0733339 144.823V135.296ZM9.80842 135.296H48.7121L39.0811 144.927H0.176735L9.80842 135.296ZM39.2887 144.927L58.5938 125.622V144.927H39.2887ZM68.4455 135.118L58.7713 125.444L58.7412 125.414V115.74H68.4154L68.4455 115.77L68.4756 115.74H78.1498V125.414L68.4455 135.118ZM78.2965 115.74H87.824L78.2965 125.267V115.74ZM88.0741 125.518H97.7483L107.453 135.222L97.7483 144.926H88.0741V125.518ZM97.9558 144.927L107.587 135.296H127.082L136.713 144.927H97.9558ZM137.067 144.927L146.595 135.399V144.927H137.067ZM146.741 115.74H156.269L146.741 125.267V115.74ZM146.771 125.444L156.372 115.843V135.045L146.771 125.444ZM166.15 144.823L156.519 135.192V115.843L166.15 125.474V144.823ZM175.927 135.045L156.622 115.74H175.927V135.045ZM175.927 115.49L166.4 105.962H175.927V115.49ZM166.253 105.816L156.549 96.1116L166.253 86.4074H175.927V105.817L166.253 105.816ZM175.927 86.26H166.4L175.927 76.7325V86.26ZM156.622 57.0733H175.927V76.3783L156.622 57.0733ZM146.74 56.8225V47.2951H156.268L146.74 56.8225ZM156.415 47.1484H146.74V27.7393H156.415L156.445 27.7693L166.119 37.4435L156.415 47.1484ZM146.74 27.5926V18.0651L156.268 27.5926H146.74ZM156.445 27.5625L146.844 17.9617H166.046L156.445 27.5625ZM175.823 8.1842L166.192 17.8151H146.844L156.475 8.1842H175.823ZM146.74 17.7117V-1.59333H166.045L146.74 17.7117Z" fill="url(#paint0_radial_9774_332207)"/>
  <defs>
    <radialGradient id="paint0_radial_9774_332207" cx="0" cy="0" r="1" gradientUnits="userSpaceOnUse" gradientTransform="translate(85.3944 57) scale(86.1789 86.1782)">
      <stop stop-color="#083F46"/>
      <stop offset="1" stop-color="white" stop-opacity="0"/>
    </radialGradient>
  </defs>
</svg>