<svg xmlns="http://www.w3.org/2000/svg" width="15" height="15" viewBox="0 0 15 15" fill="none">
  <path d="M11.7675 5.87526L9.12498 3.23276C8.57081 2.67859 7.80664 2.38109 7.02498 2.42193L4.10831 2.56193C2.94164 2.61443 2.01414 3.54193 1.95581 4.70276L1.81581 7.61943C1.78081 8.40109 2.07248 9.16526 2.62664 9.71943L5.26914 12.3619C6.35414 13.4469 8.11581 13.4469 9.20664 12.3619L11.7675 9.80109C12.8583 8.72193 12.8583 6.96026 11.7675 5.87526ZM5.74164 8.02193C4.81414 8.02193 4.06164 7.26943 4.06164 6.34193C4.06164 5.41443 4.81414 4.66193 5.74164 4.66193C6.66914 4.66193 7.42164 5.41443 7.42164 6.34193C7.42164 7.26943 6.66914 8.02193 5.74164 8.02193Z" fill="white"/>
</svg>