<svg xmlns="http://www.w3.org/2000/svg" width="15" height="15" viewBox="0 0 15 15" fill="none">
<path d="M9.97084 2.17758V1.26758C9.97084 1.02841 9.7725 0.830078 9.53334 0.830078C9.29417 0.830078 9.09584 1.02841 9.09584 1.26758V2.14258H5.30417V1.26758C5.30417 1.02841 5.10584 0.830078 4.86667 0.830078C4.6275 0.830078 4.42917 1.02841 4.42917 1.26758V2.17758C2.85417 2.32341 2.09 3.26258 1.97334 4.65674C1.96167 4.82591 2.10167 4.96591 2.265 4.96591H12.135C12.3042 4.96591 12.4442 4.82008 12.4267 4.65674C12.31 3.26258 11.5458 2.32341 9.97084 2.17758Z" fill="#00BC6E"/>
<path d="M11.8666 5.84082H2.53328C2.21245 5.84082 1.94995 6.10332 1.94995 6.42415V10.0175C1.94995 11.7675 2.82495 12.9342 4.86662 12.9342H9.53328C11.575 12.9342 12.45 11.7675 12.45 10.0175V6.42415C12.45 6.10332 12.1875 5.84082 11.8666 5.84082ZM5.57245 10.7233C5.51412 10.7758 5.44995 10.8167 5.37995 10.8458C5.30995 10.875 5.23412 10.8925 5.15828 10.8925C5.08245 10.8925 5.00662 10.875 4.93662 10.8458C4.86662 10.8167 4.80245 10.7758 4.74412 10.7233C4.63912 10.6125 4.57495 10.4608 4.57495 10.3092C4.57495 10.1575 4.63912 10.0058 4.74412 9.89499C4.80245 9.84249 4.86662 9.80165 4.93662 9.77249C5.07662 9.71415 5.23995 9.71415 5.37995 9.77249C5.44995 9.80165 5.51412 9.84249 5.57245 9.89499C5.67745 10.0058 5.74162 10.1575 5.74162 10.3092C5.74162 10.4608 5.67745 10.6125 5.57245 10.7233ZM5.69495 8.48915C5.66578 8.55915 5.62495 8.62332 5.57245 8.68165C5.51412 8.73415 5.44995 8.77499 5.37995 8.80415C5.30995 8.83332 5.23412 8.85082 5.15828 8.85082C5.08245 8.85082 5.00662 8.83332 4.93662 8.80415C4.86662 8.77499 4.80245 8.73415 4.74412 8.68165C4.69162 8.62332 4.65078 8.55915 4.62162 8.48915C4.59245 8.41915 4.57495 8.34332 4.57495 8.26749C4.57495 8.19165 4.59245 8.11582 4.62162 8.04582C4.65078 7.97582 4.69162 7.91165 4.74412 7.85332C4.80245 7.80082 4.86662 7.75999 4.93662 7.73082C5.07662 7.67249 5.23995 7.67249 5.37995 7.73082C5.44995 7.75999 5.51412 7.80082 5.57245 7.85332C5.62495 7.91165 5.66578 7.97582 5.69495 8.04582C5.72412 8.11582 5.74162 8.19165 5.74162 8.26749C5.74162 8.34332 5.72412 8.41915 5.69495 8.48915ZM7.61412 8.68165C7.55578 8.73415 7.49162 8.77499 7.42162 8.80415C7.35162 8.83332 7.27578 8.85082 7.19995 8.85082C7.12412 8.85082 7.04828 8.83332 6.97828 8.80415C6.90828 8.77499 6.84412 8.73415 6.78578 8.68165C6.68078 8.57082 6.61662 8.41915 6.61662 8.26749C6.61662 8.11582 6.68078 7.96415 6.78578 7.85332C6.84412 7.80082 6.90828 7.75999 6.97828 7.73082C7.11828 7.66665 7.28162 7.66665 7.42162 7.73082C7.49162 7.75999 7.55578 7.80082 7.61412 7.85332C7.71912 7.96415 7.78328 8.11582 7.78328 8.26749C7.78328 8.41915 7.71912 8.57082 7.61412 8.68165Z" fill="#00BC6E"/>
</svg>