<svg xmlns="http://www.w3.org/2000/svg" width="25" height="24" viewBox="0 0 25 24" fill="none">
  <path d="M18.0668 2H13.8668C10.7837 2 9.33778 3.09409 9.03655 5.73901C8.97353 6.29235 9.4318 6.75 9.98871 6.75H12.0668C16.2668 6.75 18.2168 8.7 18.2168 12.9V14.9781C18.2168 15.535 18.6745 15.9933 19.2278 15.9303C21.8727 15.629 22.9668 14.1831 22.9668 11.1V6.9C22.9668 3.4 21.5668 2 18.0668 2Z" fill="white"/>
  <path d="M12.0668 8H7.8668C4.3668 8 2.9668 9.4 2.9668 12.9V17.1C2.9668 20.6 4.3668 22 7.8668 22H12.0668C15.5668 22 16.9668 20.6 16.9668 17.1V12.9C16.9668 9.4 15.5668 8 12.0668 8ZM13.2568 13.65L9.5468 17.36C9.4068 17.5 9.2268 17.57 9.0368 17.57C8.8468 17.57 8.6668 17.5 8.5268 17.36L6.6668 15.5C6.3868 15.22 6.3868 14.77 6.6668 14.49C6.9468 14.21 7.3968 14.21 7.6768 14.49L9.0268 15.84L12.2368 12.63C12.5168 12.35 12.9668 12.35 13.2468 12.63C13.5268 12.91 13.5368 13.37 13.2568 13.65Z" fill="white"/>
</svg>