<svg xmlns="http://www.w3.org/2000/svg" width="14" height="14" viewBox="0 0 14 15" fill="none">
    <path d="M7.58326 7.35414C7.47242 7.35414 7.36159 7.31331 7.27409 7.22581C7.10493 7.05664 7.10493 6.77664 7.27409 6.60747L12.0574 1.82414C12.2266 1.65497 12.5066 1.65497 12.6758 1.82414C12.8449 1.99331 12.8449 2.27331 12.6758 2.44247L7.89242 7.22581C7.80492 7.31331 7.69409 7.35414 7.58326 7.35414Z" fill="#4F6882"/>
    <path d="M12.8334 4.90419C12.5943 4.90419 12.3959 4.70585 12.3959 4.46669V2.10419H10.0334C9.79428 2.10419 9.59595 1.90585 9.59595 1.66669C9.59595 1.42752 9.79428 1.22919 10.0334 1.22919H12.8334C13.0726 1.22919 13.2709 1.42752 13.2709 1.66669V4.46669C13.2709 4.70585 13.0726 4.90419 12.8334 4.90419Z" fill="#4F6882"/>
    <path d="M8.75008 13.7709H5.25008C2.08258 13.7709 0.729248 12.4175 0.729248 9.25002V5.75002C0.729248 2.58252 2.08258 1.22919 5.25008 1.22919H6.41675C6.65591 1.22919 6.85425 1.42752 6.85425 1.66669C6.85425 1.90585 6.65591 2.10419 6.41675 2.10419H5.25008C2.56091 2.10419 1.60425 3.06085 1.60425 5.75002V9.25002C1.60425 11.9392 2.56091 12.8959 5.25008 12.8959H8.75008C11.4392 12.8959 12.3959 11.9392 12.3959 9.25002V8.08335C12.3959 7.84419 12.5942 7.64585 12.8334 7.64585C13.0726 7.64585 13.2709 7.84419 13.2709 8.08335V9.25002C13.2709 12.4175 11.9176 13.7709 8.75008 13.7709Z" fill="#4F6882"/>
</svg>