<svg xmlns="http://www.w3.org/2000/svg" width="25" height="25" viewBox="0 0 25 25" fill="none">
  <path d="M8.05826 21.0624C8.02826 21.0624 7.98826 21.0824 7.95826 21.0824C6.01826 20.1224 4.43826 18.5324 3.46826 16.5924C3.46826 16.5624 3.48826 16.5224 3.48826 16.4924C4.70826 16.8524 5.96826 17.1224 7.21826 17.3324C7.43826 18.5924 7.69826 19.8424 8.05826 21.0624Z" fill="white"/>
  <path d="M21.3482 16.6024C20.3582 18.5924 18.7082 20.2024 16.6982 21.1724C17.0782 19.9024 17.3982 18.6224 17.6082 17.3324C18.8682 17.1224 20.1082 16.8524 21.3282 16.4924C21.3182 16.5324 21.3482 16.5724 21.3482 16.6024Z" fill="white"/>
  <path d="M21.4282 7.86232C20.1682 7.48232 18.8982 7.17232 17.6082 6.95232C17.3982 5.66232 17.0882 4.38232 16.6982 3.13232C18.7682 4.12232 20.4382 5.79232 21.4282 7.86232Z" fill="white"/>
  <path d="M8.05818 3.2424C7.69818 4.4624 7.43818 5.7024 7.22818 6.9624C5.93818 7.1624 4.65818 7.4824 3.38818 7.8624C4.35818 5.8524 5.96818 4.2024 7.95818 3.2124C7.98818 3.2124 8.02818 3.2424 8.05818 3.2424Z" fill="white"/>
  <path d="M15.8982 6.74234C13.5782 6.48234 11.2382 6.48234 8.91821 6.74234C9.16821 5.37234 9.48821 4.00234 9.93821 2.68234C9.95821 2.60234 9.94821 2.54234 9.95821 2.46234C10.7482 2.27234 11.5582 2.15234 12.4082 2.15234C13.2482 2.15234 14.0682 2.27234 14.8482 2.46234C14.8582 2.54234 14.8582 2.60234 14.8782 2.68234C15.3282 4.01234 15.6482 5.37234 15.8982 6.74234Z" fill="white"/>
  <path d="M6.9982 15.6424C5.6182 15.3924 4.2582 15.0724 2.9382 14.6224C2.8582 14.6024 2.7982 14.6124 2.7182 14.6024C2.5282 13.8124 2.4082 13.0024 2.4082 12.1524C2.4082 11.3124 2.5282 10.4924 2.7182 9.71235C2.7982 9.70235 2.8582 9.70235 2.9382 9.68235C4.2682 9.24235 5.6182 8.91235 6.9982 8.66235C6.7482 10.9824 6.7482 13.3224 6.9982 15.6424Z" fill="white"/>
  <path d="M22.4081 12.1524C22.4081 13.0024 22.2881 13.8124 22.0981 14.6024C22.0181 14.6124 21.9581 14.6024 21.8781 14.6224C20.5481 15.0624 19.1881 15.3924 17.8181 15.6424C18.0781 13.3224 18.0781 10.9824 17.8181 8.66235C19.1881 8.91235 20.5581 9.23235 21.8781 9.68235C21.9581 9.70235 22.0181 9.71235 22.0981 9.71235C22.2881 10.5024 22.4081 11.3124 22.4081 12.1524Z" fill="white"/>
  <path d="M15.8982 17.5623C15.6482 18.9423 15.3282 20.3023 14.8782 21.6223C14.8582 21.7023 14.8582 21.7623 14.8482 21.8423C14.0682 22.0323 13.2482 22.1523 12.4082 22.1523C11.5582 22.1523 10.7482 22.0323 9.95821 21.8423C9.94821 21.7623 9.95821 21.7023 9.93821 21.6223C9.49821 20.2923 9.16821 18.9423 8.91821 17.5623C10.0782 17.6923 11.2382 17.7823 12.4082 17.7823C13.5782 17.7823 14.7482 17.6923 15.8982 17.5623Z" fill="white"/>
  <path d="M16.1715 15.9157C13.6704 16.2312 11.146 16.2312 8.64487 15.9157C8.32931 13.4146 8.32931 10.8901 8.64487 8.38901C11.146 8.07345 13.6704 8.07345 16.1715 8.38901C16.4871 10.8901 16.4871 13.4146 16.1715 15.9157Z" fill="white"/>
</svg>