<svg xmlns="http://www.w3.org/2000/svg" width="384" height="317" viewBox="0 0 384 317" fill="none">
  <path opacity="0.6" d="M639.739 -20V67.8707L604.717 38.8457V-20H604.074L604.184 -19.9094V38.4015L569.162 9.37643V-20H568.629V9.37643L533.607 38.4015V-20H319.739V9.37643L284.717 38.4015V-20H284.074L249.162 8.93441V-20H248.629V9.37643L213.607 38.4015V-20H0V68.6243H106.025L71.0033 97.6494H0V98.182L0.109334 98.0914H70.4673L35.4456 127.116H0V127.558H35.4456L70.4673 156.583H0V157.025H70.4673L35.4456 186.051H0V186.493H34.9123L0 215.429V215.962H70.4673L35.4456 244.987H0V510.418H213.602V452.016L248.623 481.041V510.418H249.157V481.041L284.178 452.016V510.327L284.069 510.418H284.712V451.574L319.733 422.549V510.42H533.602V481.044L533.711 480.953L533.602 480.862V452.019L568.623 481.044V510.42H569.157V481.486L604.069 510.42H604.712V452.019L639.733 481.044V510.42H640V244.989H533.975L568.997 215.964H639.997V215.431L639.888 215.522H569.53L604.552 186.497H639.997V186.055H604.552L569.53 157.03H639.997V156.588H569.53L604.552 127.563H639.997V127.121H605.085L639.997 98.1864V97.6538H569.53L604.552 68.6288H639.997V-20H639.731H639.739ZM568.893 9.78087L604.181 39.0269V68.1823H533.602V39.0269L568.89 9.78087H568.893ZM604.714 39.4689L639.36 68.1823H604.714V39.4689ZM391.225 480.732L356.203 451.707H426.561L461.583 480.732H391.225ZM249.535 421.796L284.557 392.771H355.448L390.47 421.796H249.535ZM177.668 480.732H107.31L142.332 451.707H212.69L177.668 480.732ZM35.8216 304.237L70.8433 275.212V333.523L35.8216 362.548V304.237ZM106.022 245.431L71.3766 274.144V245.431H106.022ZM106.934 186.183V127.43L141.956 98.4052V215.652L106.934 244.677V186.367L107.044 186.276L106.934 186.185V186.183ZM212.692 38.7153H142.335L107.313 9.69026H177.671L212.692 38.7153ZM355.67 9.69026H426.028L391.006 38.7153H320.648L355.67 9.69026ZM533.228 274.9L568.25 303.925H497.892L462.871 274.9H533.228ZM497.407 304.146L462.119 333.392H426.94V274.898H462.119L497.407 304.144V304.146ZM533.074 451.577V480.42L462.873 422.24H533.074V451.395L532.964 451.486L533.074 451.577ZM391.227 421.796L355.939 392.55L391.227 363.304H426.406V421.798H391.227V421.796ZM355.451 392.329H285.093L320.115 363.304H390.473L355.451 392.329ZM71.2246 451.265L36.203 422.24H177.137L142.116 451.265H71.2246ZM106.404 363.615V421.796H36.203L106.404 363.615ZM320.269 39.4689L354.915 68.1823H320.269V39.4689ZM462.116 39.1573L497.137 68.1823H356.203L391.225 39.1573H462.116ZM533.071 127.43V186.183L498.049 215.208V97.961L533.071 68.936V127.247L532.962 127.337L533.071 127.428V127.43ZM391.758 362.859L426.404 334.146V362.859H391.758ZM249.535 362.859L284.557 333.834H320.269H426.028L391.006 362.859H249.535ZM178.047 421.796V393.082L212.692 421.796H178.047ZM213.068 422.238V450.951L178.423 422.238H213.068ZM177.513 421.796H106.934V392.64L142.223 363.394L177.511 392.64V421.796H177.513ZM178.047 127.43L213.068 98.4052V156.586V215.208L178.047 186.183V127.43ZM248.893 68.715L249.002 68.6243H355.448L390.47 97.6494H248.999L213.978 68.6243H248.781L248.89 68.715H248.893ZM462.495 244.675V186.364L497.516 157.339V215.65L462.495 244.675ZM141.959 362.988L106.937 392.013V275.207L141.959 304.233V362.985V362.988ZM141.583 245.429L106.937 274.142V245.429H141.583ZM107.049 274.675L141.961 245.74V303.609L107.049 274.675ZM213.607 244.987V186.806L248.629 215.831V274.584L213.607 303.609V244.987ZM248.253 97.6472H213.607V68.9338L248.253 97.6472ZM213.607 98.0892H248.786L284.074 127.335L248.786 156.581H213.607V98.087V98.0892ZM461.964 186.181L426.942 215.206V127.428L427.052 127.337L426.942 127.247V98.403L461.964 127.428V186.181ZM461.964 244.675L427.052 215.741L461.964 186.806V244.675ZM426.409 333.078L391.387 304.053V186.806L426.3 215.741L426.409 215.831V244.987V333.076V333.078ZM284.562 127.558H355.454L390.475 156.583H355.675L355.566 156.493L355.456 156.583H319.744H249.543L284.565 127.558H284.562ZM390.854 244.675L355.832 215.65V157.339L390.854 186.364V244.675ZM284.72 186.364L319.741 157.339V186.181L319.632 186.272L319.741 186.362V245.206V274.582L284.72 303.607V186.36V186.364ZM319.365 157.025L284.72 185.739V157.025H319.365ZM319.741 275.21V333.39H249.541L319.741 275.21ZM320.275 157.025H354.92L320.275 185.739V157.025ZM355.296 157.337V215.206L320.384 186.272L355.296 157.337ZM356.208 157.025H391.009L391.118 157.116L391.227 157.025H426.406V215.206L356.206 157.025H356.208ZM391.763 156.583L426.409 127.87V156.583H391.763ZM391.118 156.493L356.206 127.558H426.03L391.118 156.493ZM284.184 157.025V186.181L248.895 215.427L213.607 186.181V157.025H284.186H284.184ZM249.162 215.831L284.184 186.806V245.117L249.162 274.142V215.831ZM284.184 245.74V304.051L249.162 333.076V274.765L284.184 245.74ZM248.629 333.076L213.716 304.142L248.629 275.207V333.076ZM248.253 333.388H213.607V304.675L248.253 333.388ZM320.275 245.206V186.804L355.296 215.829V274.582L320.275 303.607V245.206ZM355.83 216.271L390.851 245.296V303.607L355.83 274.582V216.271ZM426.409 68.6199V126.8L356.208 68.6199H426.409ZM426.033 127.114H355.675L320.653 98.0892H391.011L426.033 127.114ZM319.899 98.0892L354.92 127.114H284.562L249.541 98.0892H319.899ZM320.275 304.235L355.563 274.989L390.851 304.235V333.39H320.272V304.235H320.275ZM391.387 304.677L426.033 333.39H391.387V304.677ZM426.942 216.273L461.588 244.987H426.942V216.273ZM497.521 156.712L462.5 185.737V127.426L497.521 98.4008V156.712ZM462.233 127.024L426.945 97.7775V68.6221H497.524V97.7775L462.236 127.024H462.233ZM213.076 97.3355L178.431 68.6221H213.076V97.3355ZM178.055 68.936L212.967 97.8704L178.055 126.805V68.936ZM142.5 362.988V304.677L177.521 333.702V392.013L142.5 362.988ZM177.521 333.078L142.5 304.053V245.743L177.521 274.768V333.078ZM142.876 245.429H213.076V303.609L142.876 245.429ZM248.789 333.832L248.898 333.923L249.007 333.832H283.808L213.607 392.013V333.832H248.786H248.789ZM462.879 244.987L533.079 186.806V244.987H462.879ZM498.057 97.3355V68.6221H532.703L498.057 97.3355ZM355.568 68.0895L320.656 39.1551H390.481L355.568 68.0895ZM178.433 68.1801L213.079 39.4667V68.1801H178.433ZM177.791 68.0895L142.879 39.1551H212.703L177.791 68.0895ZM177.148 68.6221L106.948 126.803V68.6221H177.148ZM177.524 68.9338V127.245L142.503 156.27V97.9588L177.524 68.9338ZM142.503 156.895L177.524 127.87V186.181L142.503 215.206V156.895ZM177.791 186.583L213.079 215.829V244.985H142.5V215.829L177.788 186.583H177.791ZM141.969 244.985H107.324L141.969 216.271V244.985ZM177.791 422.324L212.703 451.258H142.879L177.791 422.324ZM178.057 392.452V275.207L212.97 304.142L213.079 304.233V333.83V392.452L212.97 392.543L213.079 392.634V421.477L178.057 392.452ZM213.991 392.322L249.013 363.297H319.371L284.349 392.322H213.991ZM283.816 392.764L248.903 421.698L213.991 392.764H283.816ZM426.95 421.789V363.609L497.151 421.789H426.95ZM427.326 363.295H497.684L532.706 392.32H462.348L427.326 363.295ZM427.326 362.853L462.239 333.918L497.151 362.853H427.326ZM426.95 362.541V333.828H461.596L426.95 362.541ZM426.95 274.449V245.736L461.596 274.449H426.95ZM533.071 9.24603H498.425L533.071 -19.4674V9.24603ZM533.071 9.68805V68.1823H497.892L462.604 38.9363L497.892 9.69026H533.071V9.68805ZM462.116 38.7131H391.758L426.78 9.68805H497.137L462.116 38.7131ZM213.602 68.1801V39.4667L248.247 68.1801H213.602ZM106.558 9.68805L141.58 38.7131H71.2219L36.2003 9.68805H106.558ZM71.2219 39.1551H142.113L177.135 68.1801H36.2003L71.2219 39.1551ZM106.401 245.743V274.586L106.292 274.677L106.401 274.768V362.988L71.3793 392.013V274.765L106.401 245.74V245.743ZM70.8459 334.146V392.457L35.8243 421.482V363.171L70.8459 334.146ZM35.291 421.482L0.376003 392.55L35.2883 363.615V421.484L35.291 421.482ZM70.7366 451.484L35.4483 480.73H0.266669V422.235H35.4456L70.7339 451.482L70.7366 451.484ZM71.2246 451.705H141.583L106.561 480.73H36.2003L71.2219 451.705H71.2246ZM213.604 393.082L248.25 421.796H213.604V393.082ZM320.272 422.549L354.918 451.263H320.272V422.549ZM320.648 422.238H426.406H462.119L497.14 451.263H355.672L320.651 422.238H320.648ZM427.316 451.705H497.673L532.695 480.73H462.337L427.316 451.705ZM532.695 481.172L497.783 510.106L462.871 481.172H532.695ZM569.005 421.793L568.895 421.703L568.786 421.793H497.895L462.873 392.768H604.344L639.365 421.793H569.007H569.005ZM533.45 392.326L498.428 363.301H568.786L603.808 392.326H533.45ZM568.786 362.859H497.895L462.873 333.834H603.808L568.786 362.859ZM462.873 333.392L497.895 304.367H568.786L603.808 333.392H462.871H462.873ZM569.541 304.367H639.365L604.453 333.302L569.541 304.367ZM569.007 303.925L533.986 274.9H604.344L639.365 303.925H569.007ZM462.34 274.458L427.318 245.433H462.121L462.23 245.524L462.34 245.433H568.786L603.808 274.458H462.34ZM497.676 9.24824H356.206L391.225 -19.779H532.695L497.673 9.24603L497.676 9.24824ZM390.47 -19.779L320.269 38.4015V-19.779H390.47ZM319.736 38.8435L319.627 38.9341L319.736 39.0247V68.1801H249.535L319.736 9.99967V38.8435ZM284.181 -19.4674V38.8435L249.159 67.8685V9.55987L284.181 -19.4674ZM248.626 9.99967V67.8685L213.714 38.9341L248.626 9.99967ZM213.068 -19.779V38.4015L142.868 -19.779H213.068ZM142.113 -19.779L177.135 9.24603H35.667L0.642672 -19.779H142.111H142.113ZM34.9123 9.24603H0.266669V-19.4674L34.9123 9.24603ZM0.266669 9.68805H35.4456L70.7339 38.9341L35.4456 68.1801H0.266669V9.68805ZM106.401 68.936V97.6494H71.7553L106.401 68.936ZM71.2219 98.0914H106.401V156.586H71.2219L71.1126 156.495L35.9336 127.34L71.2219 98.0936V98.0914ZM106.401 157.028V185.741L71.7553 157.028H106.401ZM71.1126 157.118L106.025 186.053H36.2003L71.1126 157.118ZM0.642672 215.522L35.6643 186.497H106.022L71.0006 215.522H0.642672ZM106.401 186.809V244.989H36.2003L106.401 186.809ZM70.8459 245.431V274.586L35.5576 303.832L0.266669 274.586V245.431H70.8459ZM0.266669 275.212L35.2883 304.237V362.99L0.266669 392.015V275.21V275.212ZM34.9123 421.796H0.266669V393.082L34.9123 421.796ZM0.266669 481.174H34.9123L0.266669 509.887V481.174ZM35.667 481.174H177.135L142.113 510.199H0.642672L35.6643 481.174H35.667ZM142.868 510.199L213.068 452.019V510.199H142.868ZM248.893 480.639L213.714 451.484L213.604 451.393V422.238H248.783L248.893 422.328L249.002 422.238H284.181V451.393L248.893 480.639ZM284.714 422.238H319.36L284.714 450.951V422.238ZM320.269 451.705H355.448L390.737 480.951L355.448 510.197H320.269V451.703V451.705ZM356.203 510.199L391.225 481.174H462.116L497.137 510.199H356.2H356.203ZM498.425 510.199L533.071 481.486V510.199H498.425ZM533.604 422.238H568.25L533.604 450.951V422.238ZM533.714 451.484L568.626 422.549V480.418L533.714 451.484ZM604.181 509.885L569.159 480.86V422.549L604.181 451.574V509.885ZM639.736 480.418L569.535 422.238H639.736V480.418ZM639.736 421.484L605.09 392.771H639.736V421.484ZM604.557 392.329L569.269 363.083L604.557 333.837H639.736V392.331H604.557V392.329ZM639.736 333.392H605.09L639.736 304.679V333.392ZM569.535 245.431H639.736V303.611L569.535 245.431ZM533.602 244.675V215.962H568.247L533.602 244.675ZM568.781 215.52H533.602V157.025H568.781L568.89 157.116L604.069 186.272L568.781 215.518V215.52ZM533.602 156.583V127.87L568.247 156.583H533.602ZM568.89 156.493L533.978 127.558H603.802L568.89 156.493ZM639.357 98.0914L604.336 127.116H533.978L568.999 98.0914H639.357ZM533.599 126.805V68.6243H603.8L533.599 126.805Z" fill="url(#paint0_radial_8321_190565)"/>
  <defs>
    <radialGradient id="paint0_radial_8321_190565" cx="0" cy="0" r="1" gradientUnits="userSpaceOnUse" gradientTransform="translate(310.525 245.21) scale(313.378 259.72)">
      <stop stop-color="#029358"/>
      <stop offset="1" stop-opacity="0"/>
    </radialGradient>
  </defs>
</svg>