<svg xmlns="http://www.w3.org/2000/svg" width="24" height="25" viewBox="0 0 24 25" fill="none">
  <path d="M17.53 8.35008C17.46 8.34008 17.39 8.34008 17.32 8.35008C15.77 8.30008 14.54 7.03008 14.54 5.47008C14.54 3.88008 15.83 2.58008 17.43 2.58008C19.02 2.58008 20.32 3.87008 20.32 5.47008C20.31 7.03008 19.08 8.30008 17.53 8.35008Z" fill="white"/>
  <path d="M20.7901 15.28C19.6701 16.03 18.1001 16.31 16.6501 16.12C17.0301 15.3 17.2301 14.39 17.2401 13.43C17.2401 12.43 17.0201 11.48 16.6001 10.65C18.0801 10.45 19.6501 10.73 20.7801 11.48C22.3601 12.52 22.3601 14.23 20.7901 15.28Z" fill="white"/>
  <path d="M6.44016 8.35008C6.51016 8.34008 6.58016 8.34008 6.65016 8.35008C8.20016 8.30008 9.43016 7.03008 9.43016 5.47008C9.43016 3.87008 8.14016 2.58008 6.54016 2.58008C4.95016 2.58008 3.66016 3.87008 3.66016 5.47008C3.66016 7.03008 4.89016 8.30008 6.44016 8.35008Z" fill="white"/>
  <path d="M6.55012 13.4302C6.55012 14.4002 6.76012 15.3202 7.14012 16.1502C5.73012 16.3002 4.26012 16.0002 3.18012 15.2902C1.60012 14.2402 1.60012 12.5302 3.18012 11.4802C4.25012 10.7602 5.76012 10.4702 7.18012 10.6302C6.77012 11.4702 6.55012 12.4202 6.55012 13.4302Z" fill="white"/>
  <path d="M12.1198 16.4501C12.0398 16.4401 11.9498 16.4401 11.8598 16.4501C10.0198 16.3901 8.5498 14.8801 8.5498 13.0201C8.5598 11.1201 10.0898 9.58008 11.9998 9.58008C13.8998 9.58008 15.4398 11.1201 15.4398 13.0201C15.4298 14.8801 13.9698 16.3901 12.1198 16.4501Z" fill="white"/>
  <path d="M8.8698 18.52C7.3598 19.53 7.3598 21.19 8.8698 22.19C10.5898 23.34 13.4098 23.34 15.1298 22.19C16.6398 21.18 16.6398 19.52 15.1298 18.52C13.4198 17.37 10.5998 17.37 8.8698 18.52Z" fill="white"/>
</svg>