<svg xmlns="http://www.w3.org/2000/svg" width="15" height="15" viewBox="0 0 15 15" fill="none">
  <path d="M5.45003 1.66748C3.9217 1.66748 2.6792 2.90998 2.6792 4.43831C2.6792 5.93748 3.8517 7.15081 5.38003 7.20331C5.4267 7.19748 5.47337 7.19748 5.50837 7.20331C5.52003 7.20331 5.52587 7.20331 5.53753 7.20331C5.54337 7.20331 5.54337 7.20331 5.5492 7.20331C7.04253 7.15081 8.21503 5.93748 8.22087 4.43831C8.22087 2.90998 6.97837 1.66748 5.45003 1.66748Z" fill="#00BC6E"/>
  <path d="M8.41326 8.75491C6.78576 7.66991 4.1316 7.66991 2.49243 8.75491C1.7516 9.25075 1.34326 9.92158 1.34326 10.6391C1.34326 11.3566 1.7516 12.0216 2.4866 12.5116C3.30326 13.0599 4.3766 13.3341 5.44993 13.3341C6.52326 13.3341 7.5966 13.0599 8.41326 12.5116C9.14826 12.0157 9.5566 11.3507 9.5566 10.6274C9.55076 9.90991 9.14826 9.24491 8.41326 8.75491Z" fill="#00BC6E"/>
  <path d="M11.8607 4.78229C11.954 5.91396 11.149 6.90563 10.0348 7.03979C10.029 7.03979 10.029 7.03979 10.0232 7.03979H10.0057C9.97066 7.03979 9.93566 7.03979 9.9065 7.05146C9.34066 7.08063 8.8215 6.89979 8.43066 6.56729C9.0315 6.03063 9.37566 5.22563 9.30566 4.35063C9.26483 3.87813 9.1015 3.44646 8.8565 3.07896C9.07816 2.96813 9.33483 2.89813 9.59733 2.87479C10.7407 2.77563 11.7615 3.62729 11.8607 4.78229Z" fill="#00BC6E"/>
  <path d="M13.0275 10.1783C12.9808 10.7441 12.6192 11.2341 12.0125 11.5666C11.4292 11.8875 10.6942 12.0391 9.96501 12.0216C10.385 11.6425 10.63 11.17 10.6767 10.6683C10.735 9.94497 10.3908 9.2508 9.70251 8.69663C9.31167 8.38747 8.85667 8.14247 8.36084 7.96163C9.65001 7.5883 11.2717 7.83913 12.2692 8.64413C12.8058 9.0758 13.08 9.6183 13.0275 10.1783Z" fill="#00BC6E"/>
</svg>