<svg xmlns="http://www.w3.org/2000/svg" width="14" height="15" viewBox="0 0 14 15" fill="none">
  <path d="M7.25106 1.89956C7.09226 1.82384 6.90776 1.82384 6.74896 1.89956C6.62318 1.95953 6.5466 2.06723 6.49546 2.15076C6.44343 2.23575 6.38804 2.34798 6.32572 2.47424L5.04445 5.06997C5.02323 5.11296 5.01238 5.13471 5.0037 5.15007L5.003 5.15132L5.0016 5.15161C4.98431 5.15512 4.96027 5.15873 4.91283 5.16567L2.04683 5.58458C1.90756 5.60493 1.78375 5.62302 1.68688 5.64631C1.59167 5.6692 1.46564 5.70884 1.36983 5.80998C1.24885 5.93768 1.19196 6.11315 1.21499 6.28754C1.23323 6.42565 1.31201 6.5317 1.37567 6.60611C1.44044 6.68181 1.53008 6.76911 1.63092 6.86732L3.70401 8.8865C3.7384 8.92 3.75577 8.93706 3.76773 8.95007L3.76869 8.95113L3.76853 8.95255C3.76651 8.97011 3.7625 8.99412 3.75438 9.04145L3.26523 11.8935C3.24141 12.0323 3.22024 12.1557 3.21237 12.255C3.20464 12.3527 3.20328 12.4849 3.2698 12.6073C3.35378 12.7619 3.50307 12.8704 3.67607 12.9025C3.81311 12.9279 3.93838 12.8857 4.02886 12.8482C4.12091 12.81 4.2317 12.7517 4.35634 12.6861L6.91856 11.3387C6.96105 11.3164 6.98264 11.3051 6.99871 11.2978L7.00001 11.2972L7.00132 11.2978C7.01739 11.3051 7.03898 11.3164 7.08147 11.3387L9.64366 12.6861C9.76829 12.7517 9.87912 12.81 9.97117 12.8482C10.0616 12.8857 10.1869 12.9279 10.324 12.9025C10.497 12.8704 10.6462 12.7619 10.7302 12.6073C10.7967 12.4849 10.7954 12.3527 10.7877 12.255C10.7798 12.1557 10.7586 12.0323 10.7348 11.8935L10.2456 9.04145C10.2375 8.99412 10.2335 8.97011 10.2315 8.95255L10.2313 8.95113L10.2323 8.95007C10.2443 8.93706 10.2616 8.92 10.296 8.8865L12.3691 6.86734C12.4699 6.76913 12.5596 6.68182 12.6244 6.60611C12.688 6.5317 12.7668 6.42565 12.785 6.28754C12.8081 6.11315 12.7512 5.93767 12.6302 5.80998C12.5344 5.70884 12.4084 5.6692 12.3131 5.64631C12.2163 5.62301 12.0924 5.60492 11.9532 5.58457L9.08719 5.16567C9.03975 5.15873 9.01572 5.15512 8.99843 5.15161L8.99703 5.15132L8.99632 5.15007C8.98765 5.13471 8.9768 5.11296 8.95558 5.06997L7.6743 2.47425C7.61199 2.34799 7.55659 2.23575 7.50456 2.15076C7.45342 2.06723 7.37684 1.95953 7.25106 1.89956Z" fill="#FEBC3B"/>
</svg>